<?xml version="1.0" standalone="no"?>
<!DOCTYPE svg PUBLIC "-//W3C//DTD SVG 20010904//EN"
 "http://www.w3.org/TR/2001/REC-SVG-20010904/DTD/svg10.dtd">
<svg version="1.0" xmlns="http://www.w3.org/2000/svg"
 width="348.000000pt" height="348.000000pt" viewBox="0 0 348.000000 348.000000"
 preserveAspectRatio="xMidYMid meet">
<metadata>
Created by potrace 1.16, written by Peter Selinger 2001-2019
</metadata>
<g transform="translate(0.000000,348.000000) scale(0.100000,-0.100000)"
fill="#000000" stroke="none">
<path d="M512 3070 c-15 -25 -32 -26 -33 -2 -1 9 -5 1 -9 -18 -4 -21 -8 -26
-9 -14 -1 28 -31 55 -31 29 0 -15 -2 -15 -16 -4 -14 11 -16 9 -14 -21 3 -58 1
-68 -11 -47 -5 9 -7 22 -3 29 5 7 3 8 -5 3 -7 -4 -10 -17 -7 -30 9 -35 -8 -38
-23 -4 -7 16 -17 29 -22 29 -6 0 -5 -8 1 -20 8 -14 7 -25 -2 -40 -20 -32 -30
-23 -23 20 6 33 4 40 -9 40 -9 0 -16 7 -16 15 0 8 -4 15 -10 15 -5 0 -7 -13
-5 -30 4 -30 -8 -49 -19 -31 -4 5 -2 12 4 16 5 3 10 11 10 16 0 6 -4 8 -9 4
-5 -3 -17 5 -25 17 -14 19 -16 20 -16 5 0 -10 -4 -15 -10 -12 -14 9 -12 -29 2
-43 9 -9 9 -12 0 -12 -7 0 -12 6 -12 13 -1 7 -7 4 -15 -7 -8 -10 -12 -23 -9
-27 3 -5 1 -9 -5 -9 -10 0 -25 18 -27 35 0 6 -2 16 -2 23 -3 18 -45 -27 -59
-63 -6 -16 -12 -24 -12 -17 -1 8 -10 25 -21 39 -20 25 -20 25 -20 4 0 -12 -4
-20 -9 -17 -5 4 -10 -45 -10 -112 l-2 -117 893 2 c671 2 899 0 916 -9 19 -10
25 -9 32 1 7 12 142 13 824 7 l816 -8 0 40 0 39 -412 6 c-227 3 -528 8 -668
11 -140 3 -505 8 -810 11 -305 3 -565 8 -577 11 -13 2 -23 11 -23 19 0 7 -5
17 -12 21 -8 5 -9 0 -6 -14 4 -12 3 -22 0 -23 -49 -5 -212 -8 -229 -4 -28 6
-30 29 -5 47 26 18 37 39 18 32 -9 -3 -16 -10 -16 -16 0 -5 -5 -6 -10 -3 -6 4
-1 14 12 25 20 16 21 21 9 32 -12 11 -13 10 -8 -4 4 -10 2 -18 -3 -18 -6 0
-23 -13 -38 -30 -27 -29 -47 -41 -47 -29 0 4 -8 16 -18 27 -17 18 -17 21 -1
36 9 10 18 37 20 63 2 32 0 42 -7 33 -5 -9 -9 -10 -9 -4 0 7 -7 15 -16 18 -13
5 -15 1 -12 -16 3 -14 -3 -31 -15 -43 -20 -20 -20 -20 -14 10 4 17 4 24 1 18
-9 -20 -26 -15 -19 6 8 25 -5 53 -21 47 -7 -3 -14 2 -16 10 -2 11 -6 10 -16
-6z"/>
<path d="M196 2674 c-38 -7 -97 -27 -132 -44 l-64 -31 0 -165 0 -165 62 -29
c138 -66 340 -78 488 -30 77 25 100 39 159 95 55 54 49 67 -33 64 -90 -3 -97
2 -72 56 l21 44 68 1 c79 0 83 8 34 72 -86 113 -327 173 -531 132z"/>
<path d="M1850 2417 l0 -74 815 -2 815 -1 0 69 c0 63 -2 69 -22 73 -13 3 -380
6 -815 7 l-793 3 0 -75z"/>
<path d="M1016 2298 c-6 -20 -26 -106 -26 -112 0 -3 9 -6 19 -6 12 0 22 10 26
28 l8 27 6 -25 c9 -35 33 -36 54 -3 l18 28 -3 -25 c-2 -17 2 -26 14 -28 20 -4
32 19 43 86 6 40 5 42 -17 42 -16 0 -33 -11 -48 -32 l-24 -32 -8 32 c-7 25
-14 32 -34 32 -13 0 -26 -6 -28 -12z"/>
<path d="M2012 2303 c-13 -3 -27 -16 -33 -30 -10 -27 -3 -90 14 -110 12 -16
89 -17 105 -1 18 18 15 75 -5 87 -17 10 -17 10 0 11 29 0 19 27 -14 39 -18 6
-35 10 -38 10 -3 -1 -16 -4 -29 -6z"/>
<path d="M2143 2293 c-9 -3 -13 -26 -13 -63 0 -67 12 -80 72 -80 46 0 58 15
58 75 0 28 -5 56 -12 63 -12 12 -81 15 -105 5z"/>
<path d="M2292 2288 c-7 -7 -12 -24 -12 -40 0 -29 23 -48 59 -48 12 0 21 -7
21 -15 0 -17 -17 -20 -22 -4 -2 6 -17 9 -33 7 -27 -3 -28 -4 -11 -20 19 -20
76 -24 107 -8 14 8 19 21 19 56 0 69 -12 84 -68 84 -27 0 -53 -5 -60 -12z"/>
<path d="M2533 2288 c-12 -20 -13 -111 -1 -125 11 -14 86 -17 105 -5 13 8 13
108 0 130 -5 6 -28 12 -52 12 -24 0 -47 -6 -52 -12z"/>
<path d="M2682 2288 c-7 -7 -12 -24 -12 -40 0 -31 30 -53 61 -45 14 4 19 0 19
-14 0 -20 -15 -26 -25 -9 -8 13 -55 13 -55 0 0 -14 35 -30 69 -30 56 0 61 7
61 75 0 48 -4 64 -16 69 -27 10 -89 7 -102 -6z"/>
<path d="M2820 2266 c0 -38 17 -50 56 -40 22 6 24 3 24 -25 0 -35 -15 -42 -23
-10 -4 15 -12 20 -28 17 -59 -8 -19 -58 47 -58 38 0 46 4 56 26 18 38 -7 77
-52 85 -32 6 -28 8 19 13 8 0 16 7 18 14 4 9 -12 12 -56 12 l-61 0 0 -34z"/>
<path d="M3073 2292 c-7 -4 -11 -32 -10 -72 l2 -65 48 -3 c27 -2 55 2 63 9 16
13 19 55 5 63 -5 3 -7 16 -4 28 4 14 0 26 -12 34 -20 15 -73 18 -92 6z"/>
<path d="M3219 2290 c-12 -7 -16 -24 -15 -67 1 -49 4 -59 24 -69 12 -6 39 -8
60 -5 l37 6 2 63 c1 51 -2 64 -17 72 -23 12 -70 12 -91 0z"/>
<path d="M3368 2289 c-13 -7 -18 -23 -18 -55 0 -66 13 -84 60 -84 65 0 70 5
70 71 0 47 -4 60 -19 69 -25 13 -71 12 -93 -1z"/>
<path d="M1827 2142 c-13 -3 -17 -10 -14 -24 6 -20 3 -20 -191 -14 -410 13
-451 14 -372 7 52 -5 6 -8 -150 -8 -149 -1 -218 2 -205 8 l20 9 -20 -4 c-11
-2 -29 -7 -39 -12 -14 -5 -17 -4 -12 4 5 9 -17 12 -86 10 l-93 -2 80 -6 c48
-4 6 -6 -105 -4 -102 2 -216 6 -254 9 -46 5 -66 3 -62 -3 4 -7 -3 -8 -21 -3
-16 5 -37 5 -48 1 -11 -4 -73 -5 -137 -2 l-118 5 0 -442 0 -441 1128 -2 c620
-2 881 -4 580 -5 l-548 -3 0 -610 0 -610 556 0 556 0 -4 568 c-3 312 -3 588 0
615 5 54 22 64 22 12 0 -19 5 -35 11 -35 5 0 8 -4 5 -9 -4 -5 0 -12 6 -15 10
-5 10 -7 1 -12 -15 -7 -18 -448 -6 -876 l6 -248 545 0 545 0 -7 132 c-10 218
-18 1051 -10 1072 7 19 8 19 14 0 4 -10 8 -55 9 -99 7 -398 22 -974 27 -1032
5 -63 8 -73 25 -73 19 0 19 22 19 1045 l0 1045 -777 0 c-428 0 -795 3 -815 6
-28 5 -38 12 -40 28 -2 15 -9 20 -21 18z m1101 -1172 c21 -37 28 -37 47 0 26
51 45 39 45 -29 0 -58 -14 -88 -26 -56 -6 15 -8 15 -24 0 -16 -15 -19 -14 -39
11 l-21 27 0 -27 c0 -45 -24 -24 -30 25 -4 36 -9 44 -25 44 -16 0 -21 -8 -25
-39 -7 -55 -30 -60 -30 -7 0 35 -3 41 -25 47 -14 3 -25 12 -25 20 0 11 18 14
80 14 79 0 81 -1 98 -30z"/>
<path d="M0 1104 l0 -115 560 2 560 2 0 113 0 114 -560 0 -560 0 0 -116z"/>
<path d="M0 435 l0 -435 115 0 115 0 0 28 c0 16 9 37 20 47 23 21 28 93 8 114
-10 11 -10 13 0 7 9 -6 12 64 12 333 l0 341 -135 0 -135 0 0 -435z"/>
<path d="M390 479 c0 -386 0 -391 -20 -386 -24 6 -28 -18 -5 -27 9 -3 15 -18
15 -36 l0 -30 150 0 150 0 0 26 c0 23 2 25 15 14 12 -10 19 -10 27 -2 15 15
58 16 58 2 0 -5 5 -10 11 -10 5 0 7 6 3 13 -6 9 -4 9 7 -1 7 -6 21 -12 31 -12
10 0 18 -7 18 -15 0 -12 19 -15 110 -15 l110 0 0 208 c0 115 -3 311 -7 435
l-6 227 -334 0 -333 0 0 -391z"/>
</g>
</svg>
