<?xml version="1.0" encoding="UTF-8"?>
<svg version="1.1" xmlns="http://www.w3.org/2000/svg" width="500" height="500">
<path d="M0 0 C165 0 330 0 500 0 C500 165 500 330 500 500 C335 500 170 500 0 500 C0 335 0 170 0 0 Z " fill="#FEFEFE" transform="translate(0,0)"/>
<path d="M0 0 C3.62656835 0.5047076 7.14377556 0.63415322 10.79907227 0.72387695 C22.40451011 1.03262559 33.41524053 2.62085513 44.7734375 4.94042969 C47.44201372 5.47664793 50.11475607 5.97533838 52.79296875 6.4609375 C86.63826745 12.61662575 86.63826745 12.61662575 100.1796875 18.95703125 C102.85911058 20.19685897 105.51842168 21.28643383 108.26953125 22.34765625 C113.45620399 24.40374419 118.29861766 26.89520741 123.16796875 29.609375 C124.03083496 30.08802002 124.89370117 30.56666504 125.78271484 31.05981445 C137.39292204 37.58451461 148.30554527 44.87344153 158.48046875 53.484375 C159.57488281 54.39509766 159.57488281 54.39509766 160.69140625 55.32421875 C164.74341255 58.76616462 168.20884536 62.29260753 171.48046875 66.484375 C167.86542345 70.9482569 163.29384213 72.49446206 158.10546875 74.546875 C156.43024085 75.22340935 154.75574378 75.90175658 153.08203125 76.58203125 C151.88815796 77.06518799 151.88815796 77.06518799 150.67016602 77.55810547 C148.82520504 78.33854721 147.02310365 79.21919567 145.234375 80.12109375 C142.4415238 81.50365413 139.78821714 82.38658774 136.79296875 83.234375 C131.20270728 84.8987483 125.75422464 86.81293124 120.29296875 88.859375 C113.70250739 91.32229484 107.09016517 93.68904008 100.41796875 95.921875 C99.65009033 96.18081543 98.88221191 96.43975586 98.09106445 96.70654297 C92.72889365 98.484375 92.72889365 98.484375 90.48046875 98.484375 C90.48046875 111.684375 90.48046875 124.884375 90.48046875 138.484375 C92.13046875 138.814375 93.78046875 139.144375 95.48046875 139.484375 C95.81046875 140.474375 96.14046875 141.464375 96.48046875 142.484375 C99.99237684 143.71407378 99.99237684 143.71407378 103.48046875 144.484375 C103.48046875 146.464375 103.48046875 148.444375 103.48046875 150.484375 C104.02832031 150.63350342 104.57617188 150.78263184 105.140625 150.9362793 C112.42217561 153.01196522 119.42280373 155.71402025 126.45639038 158.49679565 C136.47853062 162.45835541 146.50405895 166.30703554 156.77099609 169.59545898 C162.83539961 171.54987446 168.65575757 173.90322848 174.48046875 176.484375 C169.41503113 183.34273384 164.47325886 189.90027423 157.91943359 195.41650391 C156.23079538 196.84821218 154.56051628 198.30175194 152.90551758 199.7722168 C145.70136947 206.04097014 138.30366685 210.76779617 129.73046875 215.046875 C129.10185944 215.36520294 128.47325012 215.68353088 127.82559204 216.01150513 C97.08735214 231.54127117 64.36585874 238.76353006 30.71582031 244.88671875 C27.35530272 245.50749652 24.00736081 246.1740329 20.66357422 246.87890625 C14.18617542 248.08452777 7.83297581 248.75699308 1.2578125 249.04296875 C-0.13765305 249.10414886 -0.13765305 249.10414886 -1.56130981 249.16656494 C-15.38377747 249.70444697 -29.21882376 249.70855762 -43.04980469 249.72460938 C-46.27615624 249.72900085 -49.50224141 249.74295358 -52.72851562 249.765625 C-70.6555658 249.88897444 -88.17547341 249.71273201 -105.93388367 246.88659668 C-108.80149849 246.44051236 -111.67390343 246.05068158 -114.55053711 245.66723633 C-131.15891745 243.42893763 -146.75796875 238.41207566 -162.59793091 233.12393188 C-164.57119556 232.46717982 -166.5468943 231.81821323 -168.52319336 231.1706543 C-175.07612236 229.01719618 -181.59299299 226.83933735 -187.95703125 224.171875 C-189.00334717 223.73584961 -189.00334717 223.73584961 -190.07080078 223.29101562 C-214.82968136 212.80175747 -241.52117465 197.29564993 -255.51953125 173.484375 C-255.85307617 172.93571777 -256.18662109 172.38706055 -256.53027344 171.82177734 C-266.41846819 155.50581963 -273.21864663 140.84293379 -271.51953125 121.484375 C-271.46587402 120.79601562 -271.4122168 120.10765625 -271.35693359 119.3984375 C-269.514232 97.22229382 -262.76595839 74.87134843 -245.50390625 59.7421875 C-242.88318758 57.59484472 -240.21820309 55.53180485 -237.51953125 53.484375 C-235.22377522 51.18861897 -235.19613526 50.47594975 -234.89453125 47.359375 C-234.70890625 45.44125 -234.70890625 45.44125 -234.51953125 43.484375 C-233.813125 43.55140625 -233.10671875 43.6184375 -232.37890625 43.6875 C-221.86177553 43.84604971 -215.3153996 39.15220866 -206.69140625 33.6875 C-198.99441728 28.83017686 -190.8811469 25.04676992 -182.51953125 21.484375 C-181.73046387 21.1445459 -180.94139648 20.8047168 -180.12841797 20.45458984 C-156.53530226 10.52239638 -130.13497842 5.12147432 -104.63867188 3.63330078 C-101.69692091 3.42656483 -98.80715381 3.00242065 -95.89453125 2.546875 C-64.89604807 -2.03869944 -31.21510702 -4.57313444 0 0 Z " fill="#930606" transform="translate(298.51953125,123.515625)"/>
<path d="M0 0 C0.66 0 1.32 0 2 0 C2.495 8.91 2.495 8.91 3 18 C4.93875 18.268125 6.8775 18.53625 8.875 18.8125 C17.26034662 20.74967878 20.904878 25.38736247 26 32 C27.60259268 33.91798292 29.20671058 35.83469268 30.8125 37.75 C34.0361462 41.73383227 37.09309656 45.78030146 40 50 C34.69472297 56.62518894 29.24745947 63.00157766 23.47265625 69.22265625 C20.97377296 72.0294588 18.71750553 74.95168407 16.4375 77.9375 C12.60172443 82.7151564 8.94953724 85.42771215 3 87 C2.34 87 1.68 87 1 87 C1 95.91 1 104.82 1 114 C16.18 114 31.36 114 47 114 C47 105.09 47 96.18 47 87 C45.35 86.67 43.7 86.34 42 86 C39.6875 84.4375 39.6875 84.4375 38 83 C39.58272015 80.93702698 41.16615676 78.87461051 42.75 76.8125 C43.1934375 76.23435547 43.636875 75.65621094 44.09375 75.06054688 C44.97347809 73.91560664 45.85561195 72.77251058 46.74023438 71.63134766 C47.90630868 70.12132662 49.05548678 68.59829858 50.203125 67.07421875 C50.79609375 66.38972656 51.3890625 65.70523438 52 65 C52.66 65 53.32 65 54 65 C55.2890625 66.53125 55.2890625 66.53125 56.625 68.5 C57.07101563 69.1496875 57.51703125 69.799375 57.9765625 70.46875 C58.48316406 71.22671875 58.48316406 71.22671875 59 72 C58.67 72.66 58.34 73.32 58 74 C58.495 80.435 58.495 80.435 59 87 C58.67 95.91 58.34 104.82 58 114 C80.11 114 102.22 114 125 114 C125 106.41 125 98.82 125 91 C127.64 91.33 130.28 91.66 133 92 C133 100.91 133 109.82 133 119 C121.12 119.33 109.24 119.66 97 120 C107.3914941 123.4728192 107.3914941 123.4728192 117.921875 126.0703125 C118.71039856 126.23747772 119.49892212 126.40464294 120.31134033 126.57687378 C121.9607432 126.92465172 123.61087896 127.26897136 125.26171875 127.60986328 C127.73402502 128.12169278 130.20294852 128.64791809 132.671875 129.17578125 C150.53095506 132.94930748 167.57018344 134.30407264 185.80737305 134.20581055 C189.29548529 134.18758888 192.78332947 134.18530145 196.27148438 134.18554688 C221.47090577 134.27053874 221.47090577 134.27053874 246.4375 131.25 C247.38923096 131.07662109 248.34096191 130.90324219 249.3215332 130.72460938 C263.12971988 128.13221078 276.78647076 124.80736125 290 120 C286.04 119.505 286.04 119.505 282 119 C282 117.35 282 115.7 282 114 C298.5 114 315 114 332 114 C332 106.08 332 98.16 332 90 C334.64 90.66 337.28 91.32 340 92 C340 93.98 340 95.96 340 98 C340.54785156 98.14912842 341.09570312 98.29825684 341.66015625 98.4519043 C348.94170686 100.52759022 355.94233498 103.22964525 362.97592163 106.01242065 C372.99806187 109.97398041 383.0235902 113.82266054 393.29052734 117.11108398 C399.35493086 119.06549946 405.17528882 121.41885348 411 124 C405.93456238 130.85835884 400.99279011 137.41589923 394.43896484 142.93212891 C392.75032663 144.36383718 391.08004753 145.81737694 389.42504883 147.2878418 C382.22090072 153.55659514 374.8231981 158.28342117 366.25 162.5625 C365.62139069 162.88082794 364.99278137 163.19915588 364.34512329 163.52713013 C333.60688339 179.05689617 300.88538999 186.27915506 267.23535156 192.40234375 C263.87483397 193.02312152 260.52689206 193.6896579 257.18310547 194.39453125 C250.70570667 195.60015277 244.35250706 196.27261808 237.77734375 196.55859375 C236.3818782 196.61977386 236.3818782 196.61977386 234.95822144 196.68218994 C221.13575378 197.22007197 207.30070749 197.22418262 193.46972656 197.24023438 C190.24337501 197.24462585 187.01728984 197.25857858 183.79101562 197.28125 C165.86396545 197.40459944 148.34405784 197.22835701 130.58564758 194.40222168 C127.71803276 193.95613736 124.84562782 193.56630658 121.96899414 193.18286133 C105.3606138 190.94456263 89.7615625 185.92770066 73.92160034 180.63955688 C71.94833569 179.98280482 69.97263695 179.33383823 67.99633789 178.6862793 C61.44340889 176.53282118 54.92653826 174.35496235 48.5625 171.6875 C47.51618408 171.25147461 47.51618408 171.25147461 46.44873047 170.80664062 C21.68984989 160.31738247 -5.0016434 144.81127493 -19 121 C-19.50031738 120.17701416 -19.50031738 120.17701416 -20.01074219 119.33740234 C-29.89893694 103.02144463 -36.69911538 88.35855879 -35 69 C-34.94634277 68.31164062 -34.89268555 67.62328125 -34.83740234 66.9140625 C-32.9915016 44.69941844 -26.22045523 22.38617939 -8.94921875 7.22265625 C-6.34224315 5.08229885 -3.70088837 3.01953904 -1 1 C-0.67 0.67 -0.34 0.34 0 0 Z " fill="#02084B" transform="translate(62,176)"/>
<path d="M0 0 C21.45 0 42.9 0 65 0 C65 8.91 65 17.82 65 27 C62.03 27.99 59.06 28.98 56 30 C56.63615234 30.81791016 56.63615234 30.81791016 57.28515625 31.65234375 C63.64257812 39.82617188 63.64257812 39.82617188 70 48 C73.85550018 44.36364015 76.86741138 40.58308152 79.8125 36.1875 C80.21919922 35.59001953 80.62589844 34.99253906 81.04492188 34.37695312 C82.03479703 32.92125436 83.01809735 31.46108826 84 30 C83.030625 29.690625 82.06125 29.38125 81.0625 29.0625 C78 28 78 28 77 27 C76.91241997 25.00035018 76.89303424 22.9976389 76.90234375 20.99609375 C76.90484131 19.90224365 76.90733887 18.80839355 76.90991211 17.68139648 C76.91901611 16.28091064 76.92812012 14.8804248 76.9375 13.4375 C76.958125 9.003125 76.97875 4.56875 77 0 C91.85 0 106.7 0 122 0 C122 8.91 122 17.82 122 27 C118.37 28.65 114.74 30.3 111 32 C108.67157798 34.17300887 106.94013102 35.96171038 105.0625 38.4375 C104.06717429 39.67379582 103.07105515 40.90945319 102.07421875 42.14453125 C101.5745459 42.77697754 101.07487305 43.40942383 100.56005859 44.06103516 C97.44095434 47.93770589 94.11620101 51.64351931 90.83227539 55.38061523 C88.47129459 58.11144148 86.39027502 60.64698376 85 64 C86.21623047 65.39798828 86.21623047 65.39798828 87.45703125 66.82421875 C88.25294678 67.74062134 88.25294678 67.74062134 89.06494141 68.67553711 C90.23688572 70.02479572 91.40974844 71.37325713 92.58349609 72.72094727 C95.49968517 76.07815762 98.38882597 79.45056221 101.20703125 82.890625 C101.70033936 83.48915283 102.19364746 84.08768066 102.7019043 84.7043457 C103.63657466 85.84265843 104.56408824 86.98689288 105.48364258 88.13745117 C106.5909502 89.48111455 107.78903478 90.74895057 109 92 C109.99 92 110.98 92 112 92 C110.69595779 90.47540549 109.39173551 88.95096468 108.08666992 87.42724609 C106.98501765 86.1398378 105.88492461 84.85109364 104.78637695 83.56103516 C101.3042269 79.48122191 97.74868751 75.49864773 94.01171875 71.6484375 C93 70 93 70 93.00390625 68.18359375 C94.50909019 64.88399445 96.85903495 62.36869998 99.25 59.6875 C100.33861841 58.44537976 101.42715719 57.20318972 102.515625 55.9609375 C103.08474609 55.31608398 103.65386719 54.67123047 104.24023438 54.00683594 C106.02668764 51.96956542 107.78957749 49.91401366 109.546875 47.8515625 C110.12405273 47.17649658 110.70123047 46.50143066 111.29589844 45.8059082 C112.41081721 44.50170881 113.52353953 43.19562773 114.63378906 41.88745117 C118.99889435 36.81517688 122.45003352 33.93521737 129 32 C129.33 28.04 129.66 24.08 130 20 C131.98 19.505 131.98 19.505 134 19 C134 21.64 134 24.28 134 27 C134.56589844 27.10957031 135.13179687 27.21914062 135.71484375 27.33203125 C136.44832031 27.49058594 137.18179688 27.64914063 137.9375 27.8125 C138.66839844 27.96332031 139.39929688 28.11414063 140.15234375 28.26953125 C140.76207031 28.51058594 141.37179688 28.75164062 142 29 C142.33 29.99 142.66 30.98 143 32 C144.32 32.33 145.64 32.66 147 33 C147 52.8 147 72.6 147 93 C142.38 93.99 137.76 94.98 133 96 C133 104.91 133 113.82 133 123 C135.97 123 138.94 123 142 123 C142 124.65 142 126.3 142 128 C161.14 128 180.28 128 200 128 C200 119.09 200 110.18 200 101 C197.03 100.01 194.06 99.02 191 98 C190.88409465 90.37663455 190.79527931 82.75336056 190.74093914 75.12931442 C190.71485651 71.58898524 190.67948575 68.04925931 190.62280273 64.50927734 C190.55802794 60.43841805 190.5338089 56.36819128 190.51171875 52.296875 C190.47300911 50.39201324 190.47300911 50.39201324 190.43351746 48.44866943 C190.4331398 47.26774719 190.43276215 46.08682495 190.43237305 44.87011719 C190.42126999 43.83087097 190.41016693 42.79162476 190.39872742 41.72088623 C191 39 191 39 196 35 C201.61 35 207.22 35 213 35 C213 54.14 213 73.28 213 93 C210.69 93.99 208.38 94.98 206 96 C205.67 104.91 205.34 113.82 205 123 C207.97 123 210.94 123 214 123 C214 124.65 214 126.3 214 128 C231.16 128 248.32 128 266 128 C266 119.09 266 110.18 266 101 C264.02 100.34 262.04 99.68 260 99 C259.34 98.67 258.68 98.34 258 98 C257.90727486 90.37656384 257.83622246 82.75318623 257.79275131 75.12931442 C257.77188588 71.58909928 257.74358874 68.04927026 257.69824219 64.50927734 C257.64642262 60.43843909 257.62704631 56.36800573 257.609375 52.296875 C257.58872986 51.02696716 257.56808472 49.75705933 257.54681396 48.44866943 C257.54651184 47.26774719 257.54620972 46.08682495 257.54589844 44.87011719 C257.53701599 43.83087097 257.52813354 42.79162476 257.51898193 41.72088623 C258 39 258 39 262 35 C267.94 35 273.88 35 280 35 C280 54.14 280 73.28 280 93 C277.69 93.99 275.38 94.98 273 96 C272.67 104.91 272.34 113.82 272 123 C274.64 123 277.28 123 280 123 C280 124.65 280 126.3 280 128 C283.63 128 287.26 128 291 128 C287.63230312 130.24513125 284.34299032 131.22158101 280.5 132.3125 C279.37537354 132.63516846 279.37537354 132.63516846 278.22802734 132.96435547 C275.82062759 133.64997893 273.41044551 134.32517187 271 135 C270.22430664 135.22123535 269.44861328 135.4424707 268.64941406 135.67041016 C260.00771215 138.12523324 251.36845814 140.2858415 242.5 141.75 C241.48993896 141.92329834 241.48993896 141.92329834 240.45947266 142.10009766 C224.20355318 144.57243805 207.4163016 144.21235359 191.02124023 144.24023438 C187.57055885 144.24997725 184.12046565 144.28114701 180.66992188 144.3125 C167.14771639 144.37824042 154.28152572 143.53640187 141 141 C140.24687531 140.86108337 139.49375061 140.72216675 138.71780396 140.57904053 C134.34232433 139.77038468 129.98028318 138.9089844 125.62402344 138.00268555 C123.47251762 137.55680451 121.31850879 137.12478215 119.1640625 136.69335938 C102.45534671 133.28847392 102.45534671 133.28847392 95 130 C94.67 129.34 94.34 128.68 94 128 C106.21 128 118.42 128 131 128 C131 119.09 131 110.18 131 101 C128.36 100.67 125.72 100.34 123 100 C123 107.59 123 115.18 123 123 C100.89 123 78.78 123 56 123 C56 113.1 56 103.2 56 93 C55.67 89.7 55.34 86.4 55 83 C55.495 81.515 55.495 81.515 56 80 C55.34 79.38125 54.68 78.7625 54 78.125 C52 76 52 76 52 74 C48.15274582 77.68088643 44.88614275 81.56185919 41.6875 85.8125 C41.23310547 86.40998047 40.77871094 87.00746094 40.31054688 87.62304688 C39.20366083 89.07947588 38.10134736 90.53937817 37 92 C39.64 93.32 42.28 94.64 45 96 C45 104.91 45 113.82 45 123 C29.82 123 14.64 123 -1 123 C-1 114.09 -1 105.18 -1 96 C2.3 94.68 5.6 93.36 9 92 C11.44804716 89.70952829 13.35014943 87.72094516 15.375 85.125 C16.47366545 83.78621793 17.57263139 82.4476824 18.671875 81.109375 C19.21908203 80.42939453 19.76628906 79.74941406 20.33007812 79.04882812 C21.98046536 77.02396706 23.67290664 75.04605436 25.390625 73.078125 C25.93412598 72.45534668 26.47762695 71.83256836 27.03759766 71.19091797 C28.06789197 70.01230691 29.09878159 68.83421588 30.13037109 67.65673828 C32.77291607 64.59285165 35.03856485 61.54111447 37 58 C36.16597656 57.04480469 35.33195312 56.08960938 34.47265625 55.10546875 C33.33593337 53.79948276 32.19921493 52.49349291 31.0625 51.1875 C30.46928955 50.50913086 29.8760791 49.83076172 29.26489258 49.13183594 C26.56722712 46.03147391 23.90293273 42.93167121 21.4140625 39.66015625 C16.96303479 33.84258495 14.18859509 30.73917623 7 29 C4.66492708 28.33945223 2.33131858 27.67367839 0 27 C-0.19654959 24.0003508 -0.38246106 21.00064899 -0.5625 18 C-0.61857422 17.16082031 -0.67464844 16.32164062 -0.73242188 15.45703125 C-0.78076172 14.62558594 -0.82910156 13.79414063 -0.87890625 12.9375 C-0.9260376 12.18339844 -0.97316895 11.42929688 -1.02172852 10.65234375 C-0.99250731 7.08538626 -0.44244147 3.53953177 0 0 Z " fill="#920607" transform="translate(64,167)"/>
<path d="M0 0 C3.62656835 0.5047076 7.14377556 0.63415322 10.79907227 0.72387695 C22.40451011 1.03262559 33.41524053 2.62085513 44.7734375 4.94042969 C47.44201372 5.47664793 50.11475607 5.97533838 52.79296875 6.4609375 C86.63826745 12.61662575 86.63826745 12.61662575 100.1796875 18.95703125 C102.85911058 20.19685897 105.51842168 21.28643383 108.26953125 22.34765625 C113.45620399 24.40374419 118.29861766 26.89520741 123.16796875 29.609375 C124.03083496 30.08802002 124.89370117 30.56666504 125.78271484 31.05981445 C137.39292204 37.58451461 148.30554527 44.87344153 158.48046875 53.484375 C159.57488281 54.39509766 159.57488281 54.39509766 160.69140625 55.32421875 C164.74341255 58.76616462 168.20884536 62.29260753 171.48046875 66.484375 C167.86542345 70.9482569 163.29384213 72.49446206 158.10546875 74.546875 C156.43024085 75.22340935 154.75574378 75.90175658 153.08203125 76.58203125 C151.88815796 77.06518799 151.88815796 77.06518799 150.67016602 77.55810547 C148.82520504 78.33854721 147.02310365 79.21919567 145.234375 80.12109375 C142.4415238 81.50365413 139.78821714 82.38658774 136.79296875 83.234375 C131.20270728 84.8987483 125.75422464 86.81293124 120.29296875 88.859375 C113.70250739 91.32229484 107.09016517 93.68904008 100.41796875 95.921875 C99.65009033 96.18081543 98.88221191 96.43975586 98.09106445 96.70654297 C92.72889365 98.484375 92.72889365 98.484375 90.48046875 98.484375 C90.48046875 111.684375 90.48046875 124.884375 90.48046875 138.484375 C87.51046875 137.824375 84.54046875 137.164375 81.48046875 136.484375 C81.49902924 135.59425217 81.51758972 134.70412933 81.53671265 133.78703308 C81.69988605 125.3578069 81.79471219 116.93108354 81.81468773 108.50025463 C81.82731621 104.16638862 81.86543568 99.83600768 81.96386719 95.50317383 C82.05807841 91.31332997 82.08264169 87.12810053 82.06093216 82.93731117 C82.06454477 81.3468621 82.09236752 79.75626049 82.14588547 78.16670799 C82.56909736 69.45296281 82.56909736 69.45296281 79.09812927 61.7604351 C75.74509882 58.56000157 72.01650749 56.07562839 68.10599136 53.61423683 C65.79561967 52.00835281 64.07685508 50.01790077 62.27734375 47.87109375 C56.4028961 42.57025906 48.77940325 43.18059821 41.28027344 43.27661133 C38.74444882 43.2967639 36.22546463 43.21590636 33.69140625 43.12695312 C24.70016253 43.02097529 18.77131638 43.85300185 12.02734375 50.12109375 C11.0275504 51.14997096 10.03086978 52.18188685 9.03808594 53.2175293 C6.48046875 55.484375 6.48046875 55.484375 4.44946289 55.6315918 C1.66030681 54.00651499 -0.30550673 51.78780557 -2.5703125 49.4921875 C-9.68150526 43.05469556 -16.92722266 43.01341557 -26.16577148 43.29052734 C-28.71717108 43.35964971 -31.25483478 43.33168817 -33.80664062 43.29296875 C-44.32442925 43.29931491 -44.32442925 43.29931491 -53.1953125 48.5546875 C-55.14996805 50.64237693 -55.14996805 50.64237693 -56.51953125 52.484375 C-57.50953125 52.154375 -58.49953125 51.824375 -59.51953125 51.484375 C-60.96732345 48.58879059 -61.51953125 46.74248562 -61.51953125 43.484375 C-74.71953125 43.484375 -87.91953125 43.484375 -101.51953125 43.484375 C-101.51953125 49.754375 -101.51953125 56.024375 -101.51953125 62.484375 C-102.50953125 62.979375 -102.50953125 62.979375 -103.51953125 63.484375 C-103.56655186 65.40046481 -103.55692251 67.31807309 -103.51953125 69.234375 C-103.7421875 72.55859375 -103.7421875 72.55859375 -104.51953125 75.484375 C-106.79288384 77.27090865 -109.00654815 78.0659905 -111.69921875 79.10546875 C-117.18871457 81.78939122 -120.69889521 86.83979987 -124.51953125 91.484375 C-125.30585938 92.43441406 -126.0921875 93.38445312 -126.90234375 94.36328125 C-128.41149977 96.20240528 -129.91063362 98.04981022 -131.3984375 99.90625 C-133.92939685 102.98255418 -136.62649228 105.87442601 -139.40234375 108.73046875 C-140.69735334 110.40588621 -140.69735334 110.40588621 -140.48046875 112.390625 C-139.14127148 115.30855077 -137.23434732 117.22610323 -135.01953125 119.546875 C-129.91927051 124.99989153 -125.18841068 130.65391446 -120.51953125 136.484375 C-121.50953125 136.814375 -122.49953125 137.144375 -123.51953125 137.484375 C-127.27442044 134.97506902 -129.93468618 131.95362416 -132.70703125 128.421875 C-136.74097428 123.38113547 -140.9651978 118.62626772 -145.35546875 113.89453125 C-147.21174103 111.82716664 -148.89864545 109.73792913 -150.51953125 107.484375 C-148.95721104 103.80481209 -146.68369043 101.31921707 -143.95703125 98.421875 C-140.45199325 94.63400973 -137.08363416 90.80830264 -133.83203125 86.796875 C-133.0946875 85.89582031 -132.35734375 84.99476563 -131.59765625 84.06640625 C-130.28861659 82.43994908 -129.00349337 80.79366058 -127.75390625 79.12109375 C-122.8672304 72.87573933 -121.11665805 73.06351304 -112.51953125 70.484375 C-112.51953125 61.574375 -112.51953125 52.664375 -112.51953125 43.484375 C-127.36953125 43.484375 -142.21953125 43.484375 -157.51953125 43.484375 C-157.18953125 52.394375 -156.85953125 61.304375 -156.51953125 70.484375 C-154.53953125 71.474375 -152.55953125 72.464375 -150.51953125 73.484375 C-152.07651406 78.38980878 -154.95276798 81.86387736 -158.14453125 85.796875 C-158.66015625 86.44205078 -159.17578125 87.08722656 -159.70703125 87.75195312 C-160.97247307 89.3337554 -162.24527387 90.90966563 -163.51953125 92.484375 C-167.17831852 88.91788147 -170.55946775 85.21910295 -173.83203125 81.296875 C-174.28642578 80.76384766 -174.74082031 80.23082031 -175.20898438 79.68164062 C-178.51953125 75.72391917 -178.51953125 75.72391917 -178.51953125 73.484375 C-175.54953125 72.494375 -172.57953125 71.504375 -169.51953125 70.484375 C-169.51953125 61.574375 -169.51953125 52.664375 -169.51953125 43.484375 C-186.67953125 43.484375 -203.83953125 43.484375 -221.51953125 43.484375 C-209.7736864 34.08769912 -196.27962073 27.42367346 -182.51953125 21.484375 C-181.72321289 21.14019531 -180.92689453 20.79601562 -180.10644531 20.44140625 C-156.52129401 10.51682021 -130.12417169 5.12084355 -104.63867188 3.63330078 C-101.69692091 3.42656483 -98.80715381 3.00242065 -95.89453125 2.546875 C-64.89604807 -2.03869944 -31.21510702 -4.57313444 0 0 Z " fill="#03094B" transform="translate(298.51953125,123.515625)"/>
<path d="M0 0 C1.53584544 -0.00701996 1.53584544 -0.00701996 3.10271806 -0.01418173 C6.52647159 -0.0261276 9.94982457 -0.01667574 13.37358093 -0.00723267 C15.8312656 -0.01129861 18.28894843 -0.01664062 20.74662781 -0.02316284 C26.72550791 -0.03542133 32.70423141 -0.03362802 38.68310539 -0.02492492 C43.54508574 -0.01814161 48.40703445 -0.01723445 53.26901817 -0.02049637 C53.96179819 -0.02095607 54.6545782 -0.02141577 55.36835155 -0.0218894 C56.7758905 -0.02284861 58.18342945 -0.02382125 59.59096839 -0.02480717 C72.78361778 -0.03335765 85.97620459 -0.0235333 99.16884371 -0.00740607 C110.47523932 0.00598791 121.78154247 0.00367597 133.0879364 -0.01016235 C146.22967795 -0.02623959 159.37136462 -0.03252435 172.51311463 -0.02332556 C173.91630724 -0.02236996 175.31949986 -0.02142685 176.72269249 -0.02049637 C177.75817195 -0.01980213 177.75817195 -0.01980213 178.81457019 -0.01909386 C183.66607979 -0.01650973 188.51755443 -0.02086268 193.36905861 -0.02793503 C199.90835505 -0.03725847 206.44750455 -0.03056039 212.98679352 -0.01325226 C215.38369394 -0.00929343 217.78060906 -0.01041109 220.17750359 -0.01704025 C223.45593427 -0.02526975 226.73381136 -0.01491653 230.01220703 0 C230.9549318 -0.00669217 231.89765657 -0.01338433 232.86894876 -0.02027929 C242.67048485 0.06588495 250.66051522 2.16276939 257.77861023 9.09188843 C263.27545537 15.65227795 264.44418998 22.86185551 264.13798523 31.26766968 C263.04126478 39.00294575 258.70271671 43.89446344 252.95439148 48.87313843 C246.40250514 53.24861962 240.98835227 53.81809642 233.27926636 53.77536011 C232.24311874 53.78145121 231.20697113 53.78754231 230.1394251 53.793818 C226.67423349 53.81044093 223.20940963 53.80567304 219.7441864 53.8008728 C217.25694395 53.80821355 214.76970492 53.8167998 212.2824707 53.82653809 C206.23141308 53.84645529 200.18049953 53.85213466 194.12942191 53.8503502 C189.20880072 53.84904095 184.28820935 53.85285503 179.36759377 53.86027527 C177.94849326 53.86237454 176.52939276 53.86447214 175.11029226 53.86656809 C174.05068918 53.86813338 174.05068918 53.86813338 172.96967999 53.86973029 C159.6182338 53.88862075 146.26684258 53.88758625 132.91538856 53.88076097 C120.7137009 53.87518742 108.51222332 53.89600491 96.31058475 53.92912143 C83.76941915 53.96289413 71.22835409 53.97802225 58.68714219 53.97340441 C51.65124614 53.97116319 44.61554422 53.97635162 37.57968712 54.001297 C30.96153775 54.02456233 24.34375174 54.02168393 17.72556877 54.00136948 C15.29963593 53.99795976 12.87367366 54.00304675 10.44778061 54.01735306 C7.12962697 54.03556763 3.81295223 54.02277815 0.49484253 54.00241089 C-0.93675389 54.02118766 -0.93675389 54.02118766 -2.39727145 54.04034376 C-10.4380881 53.93491608 -16.8449817 51.35113999 -22.95967102 46.09970093 C-23.56810852 45.36751343 -24.17654602 44.63532593 -24.80342102 43.88095093 C-25.43248352 43.14876343 -26.06154602 42.41657593 -26.70967102 41.66220093 C-31.46252476 34.85909656 -30.95662774 27.33819645 -30.30342102 19.38095093 C-28.64301336 12.31586063 -23.07499734 7.42913277 -17.30342102 3.38095093 C-11.418476 0.28263735 -6.5874184 -0.04643281 0 0 Z " fill="#F1D545" transform="translate(131.3034210205078,376.6190490722656)"/>
<path d="M0 0 C0.99 0 1.98 0 3 0 C3 2.64 3 5.28 3 8 C3.56589844 8.10957031 4.13179687 8.21914062 4.71484375 8.33203125 C5.44832031 8.49058594 6.18179688 8.64914063 6.9375 8.8125 C7.66839844 8.96332031 8.39929688 9.11414063 9.15234375 9.26953125 C9.76207031 9.51058594 10.37179688 9.75164062 11 10 C11.495 11.485 11.495 11.485 12 13 C13.32 13.33 14.64 13.66 16 14 C16 33.8 16 53.6 16 74 C11.38 74.99 6.76 75.98 2 77 C2 85.91 2 94.82 2 104 C4.97 104 7.94 104 11 104 C11 105.65 11 107.3 11 109 C30.14 109 49.28 109 69 109 C69 100.09 69 91.18 69 82 C66.03 81.01 63.06 80.02 60 79 C59.88409465 71.37663455 59.79527931 63.75336056 59.74093914 56.12931442 C59.71485651 52.58898524 59.67948575 49.04925931 59.62280273 45.50927734 C59.55802794 41.43841805 59.5338089 37.36819128 59.51171875 33.296875 C59.47300911 31.39201324 59.47300911 31.39201324 59.43351746 29.44866943 C59.4331398 28.26774719 59.43276215 27.08682495 59.43237305 25.87011719 C59.42126999 24.83087097 59.41016693 23.79162476 59.39872742 22.72088623 C60 20 60 20 65 16 C70.61 16 76.22 16 82 16 C82 35.14 82 54.28 82 74 C79.69 74.99 77.38 75.98 75 77 C74.67 85.91 74.34 94.82 74 104 C76.97 104 79.94 104 83 104 C83 105.65 83 107.3 83 109 C100.16 109 117.32 109 135 109 C135 100.09 135 91.18 135 82 C132.03 81.01 132.03 81.01 129 80 C128.34 79.67 127.68 79.34 127 79 C126.90727486 71.37656384 126.83622246 63.75318623 126.79275131 56.12931442 C126.77188588 52.58909928 126.74358874 49.04927026 126.69824219 45.50927734 C126.64642262 41.43843909 126.62704631 37.36800573 126.609375 33.296875 C126.58872986 32.02696716 126.56808472 30.75705933 126.54681396 29.44866943 C126.54651184 28.26774719 126.54620972 27.08682495 126.54589844 25.87011719 C126.53701599 24.83087097 126.52813354 23.79162476 126.51898193 22.72088623 C127 20 127 20 131 16 C136.94 16 142.88 16 149 16 C149 35.14 149 54.28 149 74 C146.69 74.99 144.38 75.98 142 77 C141.67 85.91 141.34 94.82 141 104 C143.64 104 146.28 104 149 104 C149 105.65 149 107.3 149 109 C152.63 109 156.26 109 160 109 C156.63230312 111.24513125 153.34299032 112.22158101 149.5 113.3125 C148.75024902 113.5276123 148.00049805 113.74272461 147.22802734 113.96435547 C144.82062759 114.64997893 142.41044551 115.32517187 140 116 C138.83645996 116.33185303 138.83645996 116.33185303 137.64941406 116.67041016 C129.00771215 119.12523324 120.36845814 121.2858415 111.5 122.75 C110.82662598 122.86553223 110.15325195 122.98106445 109.45947266 123.10009766 C93.20355318 125.57243805 76.4163016 125.21235359 60.02124023 125.24023438 C56.57055885 125.24997725 53.12046565 125.28114701 49.66992188 125.3125 C36.14771639 125.37824042 23.28152572 124.53640187 10 122 C9.24687531 121.86108337 8.49375061 121.72216675 7.71780396 121.57904053 C3.34232433 120.77038468 -1.01971682 119.9089844 -5.37597656 119.00268555 C-7.52748238 118.55680451 -9.68149121 118.12478215 -11.8359375 117.69335938 C-28.54465329 114.28847392 -28.54465329 114.28847392 -36 111 C-36.33 110.34 -36.66 109.68 -37 109 C-24.79 109 -12.58 109 0 109 C0 100.09 0 91.18 0 82 C-2.97 81.505 -2.97 81.505 -6 81 C-6.66 80.67 -7.32 80.34 -8 80 C-8 79.01 -8 78.02 -8 77 C-9.11375 77.061875 -10.2275 77.12375 -11.375 77.1875 C-18.23465272 76.32853114 -21.93535964 70.04630119 -26 65 C-26.8353125 63.98679688 -27.670625 62.97359375 -28.53125 61.9296875 C-30.06175354 60.06624974 -31.58245456 58.19468469 -33.08984375 56.3125 C-34.87533733 54.01812069 -34.87533733 54.01812069 -36.81640625 52.4375 C-38 51 -38 51 -38.015625 49.20703125 C-36.49491018 45.90240096 -34.14866764 43.37733756 -31.75 40.6875 C-30.66138159 39.44537976 -29.57284281 38.20318972 -28.484375 36.9609375 C-27.63069336 35.99365723 -27.63069336 35.99365723 -26.75976562 35.00683594 C-24.97331236 32.96956542 -23.21042251 30.91401366 -21.453125 28.8515625 C-20.87594727 28.17649658 -20.29876953 27.50143066 -19.70410156 26.8059082 C-18.58918279 25.50170881 -17.47646047 24.19562773 -16.36621094 22.88745117 C-12.00110565 17.81517688 -8.54996648 14.93521737 -2 13 C-1.90912109 11.71802734 -1.90912109 11.71802734 -1.81640625 10.41015625 C-1.73261719 9.30542969 -1.64882812 8.20070312 -1.5625 7.0625 C-1.48128906 5.96035156 -1.40007812 4.85820312 -1.31640625 3.72265625 C-1 1 -1 1 0 0 Z " fill="#FBFAFB" transform="translate(195,186)"/>
<path d="M0 0 C2.97 0 5.94 0 9 0 C9.33 1.65 9.66 3.3 10 5 C23.86 5 37.72 5 52 5 C53.12625316 10.63126582 53.12625316 10.63126582 51.26953125 14.1015625 C50.87830078 14.83890625 50.48707031 15.57625 50.08398438 16.3359375 C49.66439453 17.09132812 49.24480469 17.84671875 48.8125 18.625 C48.41224609 19.388125 48.01199219 20.15125 47.59960938 20.9375 C45.50004707 24.81675613 43.90001425 27.70795931 40 30 C37.52636719 30.34057617 37.52636719 30.34057617 34.796875 30.29296875 C33.32734375 30.2784668 33.32734375 30.2784668 31.828125 30.26367188 C30.30445313 30.2259668 30.30445313 30.2259668 28.75 30.1875 C27.71875 30.17396484 26.6875 30.16042969 25.625 30.14648438 C23.08280208 30.11117607 20.54166777 30.06186036 18 30 C17.01 32.475 17.01 32.475 16 35 C26.56 35 37.12 35 48 35 C48 36.65 48 38.3 48 40 C43.07042741 40.07414321 38.14117919 40.12859817 33.21118164 40.16479492 C31.5340408 40.17988384 29.85693943 40.20035748 28.17993164 40.22631836 C25.76959496 40.26269811 23.35977981 40.27972486 20.94921875 40.29296875 C20.19912033 40.30845261 19.44902191 40.32393646 18.67619324 40.33988953 C13.51550263 40.34155887 13.51550263 40.34155887 10.99145508 38.66918945 C10 37 10 37 10.1875 34 C11 31 11 31 13 28 C12.73906232 22.46678301 11.01761098 18.44410063 8.4375 13.6875 C5 7.22284736 5 7.22284736 5 5 C3.35 5 1.7 5 0 5 C0 3.35 0 1.7 0 0 Z " fill="#050505" transform="translate(406,223)"/>
<path d="M0 0 C0.99773437 -0.02835938 1.99546875 -0.05671875 3.0234375 -0.0859375 C10.3570188 -0.10559858 10.3570188 -0.10559858 13.6875 3.03125 C14.120625 3.8459375 14.55375 4.660625 15 5.5 C13.73542969 5.53738281 12.47085937 5.57476562 11.16796875 5.61328125 C9.5077827 5.67893833 7.84762778 5.74538576 6.1875 5.8125 C5.35412109 5.83505859 4.52074219 5.85761719 3.66210938 5.88085938 C2.85966797 5.91630859 2.05722656 5.95175781 1.23046875 5.98828125 C0.49207764 6.01446533 -0.24631348 6.04064941 -1.00708008 6.06762695 C-3.60787552 6.63188136 -4.37935196 7.39537221 -6 9.5 C-6.47328463 12.10059046 -6.47328463 12.10059046 -6.43237305 15.07299805 C-6.45216721 16.21395432 -6.47196136 17.35491058 -6.49235535 18.53044128 C-6.49874527 19.76176285 -6.50513519 20.99308441 -6.51171875 22.26171875 C-6.52966995 23.52264847 -6.54762115 24.78357819 -6.56611633 26.0827179 C-6.61115424 29.43155514 -6.64342741 32.7800242 -6.66955566 36.12902832 C-6.69935766 39.54774286 -6.7458891 42.9662251 -6.79101562 46.38476562 C-6.87611681 53.08973671 -6.94439831 59.79472294 -7 66.5 C-13.875 64.625 -13.875 64.625 -15 63.5 C-15.11482653 61.64470323 -15.15965163 59.7850353 -15.17700195 57.92626953 C-15.18983719 56.73478302 -15.20267242 55.54329651 -15.21589661 54.31570435 C-15.22328354 53.01785004 -15.23067047 51.71999573 -15.23828125 50.3828125 C-15.24235678 49.72552029 -15.2464323 49.06822807 -15.25063133 48.39101791 C-15.27150718 44.91221173 -15.28580233 41.43344517 -15.29516602 37.95458984 C-15.3062348 34.35733696 -15.34063446 30.76070198 -15.38033772 27.16366768 C-15.40645808 24.40130446 -15.41485368 21.63908948 -15.41844749 18.87661362 C-15.42569946 16.90504923 -15.45215865 14.93358595 -15.47883606 12.96218872 C-15.47591049 11.76439789 -15.47298492 10.56660706 -15.4699707 9.33251953 C-15.47583694 8.27630402 -15.48170319 7.2200885 -15.48774719 6.13186646 C-15 3.5 -15 3.5 -13.1212616 1.66171265 C-9.05135232 -0.56718033 -4.53598463 -0.01172089 0 0 Z " fill="#040849" transform="translate(329,196.5)"/>
<path d="M0 0 C0.99773437 -0.02384766 1.99546875 -0.04769531 3.0234375 -0.07226562 C10.34269113 -0.05754863 10.34269113 -0.05754863 13.6875 3.09765625 C14.120625 3.91105469 14.55375 4.72445312 15 5.5625 C13.81921875 5.59988281 12.6384375 5.63726562 11.421875 5.67578125 C9.86455212 5.74145149 8.30726186 5.80789847 6.75 5.875 C5.97269531 5.89755859 5.19539063 5.92011719 4.39453125 5.94335938 C3.26337891 5.9965332 3.26337891 5.9965332 2.109375 6.05078125 C1.41811523 6.07696533 0.72685547 6.10314941 0.01464844 6.13012695 C-2.69225086 6.71106717 -3.99573083 7.64952047 -6 9.5625 C-6.61748923 12.15530158 -6.61748923 12.15530158 -6.54589844 15.13549805 C-6.57547638 16.84693245 -6.57547638 16.84693245 -6.60565186 18.59294128 C-6.60749481 20.43992363 -6.60749481 20.43992363 -6.609375 22.32421875 C-6.62591125 23.58514847 -6.64244751 24.84607819 -6.65948486 26.1452179 C-6.69987159 29.49419254 -6.72316103 32.84240506 -6.73822021 36.19152832 C-6.75778424 39.61026518 -6.79975482 43.02871874 -6.83984375 46.44726562 C-6.91390843 53.15227483 -6.96544558 59.85717712 -7 66.5625 C-12.75 64.6875 -12.75 64.6875 -15 63.5625 C-15.09272514 55.93906384 -15.16377754 48.31568623 -15.20724869 40.69181442 C-15.22811412 37.15159928 -15.25641126 33.61177026 -15.30175781 30.07177734 C-15.35357738 26.00093909 -15.37295369 21.93050573 -15.390625 17.859375 C-15.41127014 16.58946716 -15.43191528 15.31955933 -15.45318604 14.01116943 C-15.45348816 12.83024719 -15.45379028 11.64932495 -15.45410156 10.43261719 C-15.46298401 9.39337097 -15.47186646 8.35412476 -15.48101807 7.28338623 C-14.01343193 -1.01803773 -6.71118683 -0.07370166 0 0 Z " fill="#04084A" transform="translate(262,196.4375)"/>
<path d="M0 0 C2.97 0.99 5.94 1.98 9 3 C9 11.91 9 20.82 9 30 C-10.14 30 -29.28 30 -49 30 C-49 28.35 -49 26.7 -49 25 C-32.83 25 -16.66 25 0 25 C0 16.75 0 8.5 0 0 Z " fill="#090E4F" transform="translate(255,265)"/>
<path d="M0 0 C3.13596904 1.71590759 4.86949588 3.21635319 6.86328125 6.20703125 C7.32009932 10.3183939 7.32059907 12.47205618 5.11328125 16.01953125 C1.27445174 19.75172661 -1.68285122 20.51423395 -7.01171875 20.58203125 C-12.43188348 20.49610181 -15.15897784 19.87073998 -19.13671875 16.20703125 C-21.63703529 12.45655643 -21.67275429 10.64846859 -21.13671875 6.20703125 C-15.71607685 -0.56877112 -8.3530226 -3.09993343 0 0 Z " fill="#151B58" transform="translate(212.13671875,99.79296875)"/>
<path d="M0 0 C3.60461295 -0.08076726 7.20742563 -0.14038951 10.8125 -0.1875 C12.34874023 -0.22520508 12.34874023 -0.22520508 13.91601562 -0.26367188 C15.39038086 -0.27817383 15.39038086 -0.27817383 16.89453125 -0.29296875 C18.25348511 -0.31653442 18.25348511 -0.31653442 19.63989258 -0.34057617 C22 0 22 0 23.79956055 1.33081055 C25.64179413 3.89240318 25.31915602 5.93610224 25 9 C24.01 10.485 24.01 10.485 23 12 C23.66 12.66 24.32 13.32 25 14 C25.125 17.625 25.125 17.625 25 21 C21.7 21 18.4 21 15 21 C14.67 18.36 14.34 15.72 14 13 C12.68 12.67 11.36 12.34 10 12 C10 14.97 10 17.94 10 21 C6.7 21 3.4 21 0 21 C0 14.07 0 7.14 0 0 Z " fill="#9B150A" transform="translate(164,397)"/>
<path d="M0 0 C3.60461295 -0.08076726 7.20742563 -0.14038951 10.8125 -0.1875 C12.34874023 -0.22520508 12.34874023 -0.22520508 13.91601562 -0.26367188 C15.39038086 -0.27817383 15.39038086 -0.27817383 16.89453125 -0.29296875 C18.25348511 -0.31653442 18.25348511 -0.31653442 19.63989258 -0.34057617 C22 0 22 0 23.79956055 1.33081055 C25.64179413 3.89240318 25.31915602 5.93610224 25 9 C24.01 10.485 24.01 10.485 23 12 C23.66 12.66 24.32 13.32 25 14 C25.125 17.625 25.125 17.625 25 21 C21.7 21 18.4 21 15 21 C14.67 18.36 14.34 15.72 14 13 C12.68 12.67 11.36 12.34 10 12 C10 14.97 10 17.94 10 21 C6.7 21 3.4 21 0 21 C0 14.07 0 7.14 0 0 Z " fill="#141A58" transform="translate(220,99)"/>
<path d="M0 0 C3.3825 -0.061875 6.765 -0.12375 10.25 -0.1875 C11.30993164 -0.21481201 12.36986328 -0.24212402 13.46191406 -0.27026367 C14.72600098 -0.28150269 14.72600098 -0.28150269 16.015625 -0.29296875 C16.87446289 -0.3086792 17.73330078 -0.32438965 18.61816406 -0.34057617 C21.53138185 0.07598172 22.88582537 0.98178748 25 3 C25.4375 5.5 25.4375 5.5 25 8 C23.5 9.8125 23.5 9.8125 22 11 C22.66 11.66 23.32 12.32 24 13 C24.26991906 15.68839385 24.08737357 18.29141936 24 21 C20.7 21 17.4 21 14 21 C14 18.03 14 15.06 14 12 C12.68 12 11.36 12 10 12 C10 14.97 10 17.94 10 21 C6.7 21 3.4 21 0 21 C0 14.07 0 7.14 0 0 Z " fill="#9A140A" transform="translate(329,397)"/>
<path d="M0 0 C3.3825 -0.061875 6.765 -0.12375 10.25 -0.1875 C11.30993164 -0.21481201 12.36986328 -0.24212402 13.46191406 -0.27026367 C14.72600098 -0.28150269 14.72600098 -0.28150269 16.015625 -0.29296875 C16.87446289 -0.3086792 17.73330078 -0.32438965 18.61816406 -0.34057617 C21.53138185 0.07598172 22.88582537 0.98178748 25 3 C25.4375 5.5 25.4375 5.5 25 8 C23.5 9.8125 23.5 9.8125 22 11 C22.66 11.66 23.32 12.32 24 13 C24.26991906 15.68839385 24.08737357 18.29141936 24 21 C20.7 21 17.4 21 14 21 C14 18.03 14 15.06 14 12 C12.68 12 11.36 12 10 12 C10 14.97 10 17.94 10 21 C6.7 21 3.4 21 0 21 C0 14.07 0 7.14 0 0 Z " fill="#131957" transform="translate(291,99)"/>
<path d="M0 0 C6 2 6 2 8 3 C8 11.91 8 20.82 8 30 C-9.16 30 -26.32 30 -44 30 C-44 28.35 -44 26.7 -44 25 C-29.48 25 -14.96 25 0 25 C0 16.75 0 8.5 0 0 Z " fill="#02084B" transform="translate(322,265)"/>
<path d="M0 0 C2.97 0 5.94 0 9 0 C10.32 2.31 11.64 4.62 13 7 C13.99 4.69 14.98 2.38 16 0 C19.3 0 22.6 0 26 0 C26 6.93 26 13.86 26 21 C22.7 21 19.4 21 16 21 C15.67 17.37 15.34 13.74 15 10 C13.35 13.63 11.7 17.26 10 21 C9.01 21 8.02 21 7 21 C5.68 18.03 4.36 15.06 3 12 C2.67 14.97 2.34 17.94 2 21 C1.34 21 0.68 21 0 21 C0 14.07 0 7.14 0 0 Z " fill="#9A140A" transform="translate(275,397)"/>
<path d="M0 0 C3.3825 -0.061875 6.765 -0.12375 10.25 -0.1875 C11.30993164 -0.21481201 12.36986328 -0.24212402 13.46191406 -0.27026367 C14.72600098 -0.28150269 14.72600098 -0.28150269 16.015625 -0.29296875 C16.87446289 -0.3086792 17.73330078 -0.32438965 18.61816406 -0.34057617 C21.53013459 0.07580338 22.88252678 0.98803971 25 3 C25.6444576 6.14173081 25.2663334 7.53074591 23.6875 10.3125 C19.40525166 13.00135361 14.92480563 12.30567759 10 12 C10 14.97 10 17.94 10 21 C6.7 21 3.4 21 0 21 C0 14.07 0 7.14 0 0 Z " fill="#940606" transform="translate(138,397)"/>
<path d="M0 0 C1.23556641 0.01740234 1.23556641 0.01740234 2.49609375 0.03515625 C3.32238281 0.04417969 4.14867187 0.05320312 5 0.0625 C5.63808594 0.07410156 6.27617187 0.08570313 6.93359375 0.09765625 C8.27601796 3.03108523 9.60593442 5.97001877 10.93359375 8.91015625 C11.31515625 9.74353516 11.69671875 10.57691406 12.08984375 11.43554688 C12.45078125 12.23798828 12.81171875 13.04042969 13.18359375 13.8671875 C13.51875 14.60557861 13.85390625 15.34396973 14.19921875 16.10473633 C14.93359375 18.09765625 14.93359375 18.09765625 14.93359375 21.09765625 C11.30359375 21.09765625 7.67359375 21.09765625 3.93359375 21.09765625 C1.93359375 17.09765625 1.93359375 17.09765625 1.93359375 14.09765625 C-1.47255571 14.11892087 -1.47255571 14.11892087 -5.06640625 15.09765625 C-7.07681628 18.03215033 -7.07681628 18.03215033 -8.06640625 21.09765625 C-8.72640625 21.09765625 -9.38640625 21.09765625 -10.06640625 21.09765625 C-4.1968102 0.19833697 -4.1968102 0.19833697 0 0 Z " fill="#970E08" transform="translate(312.06640625,396.90234375)"/>
<path d="M0 0 C9 0 9 0 11.41015625 1.75 C11.95542969 2.4925 12.50070312 3.235 13.0625 4 C13.63097656 4.7425 14.19945312 5.485 14.78515625 6.25 C15.18605469 6.8275 15.58695312 7.405 16 8 C16.33 5.36 16.66 2.72 17 0 C17.66 0 18.32 0 19 0 C19 6.93 19 13.86 19 21 C12 21 12 21 9.34765625 18.375 C8.562352 17.26633518 7.80094319 16.14041313 7.0625 15 C6.66482422 14.42765625 6.26714844 13.8553125 5.85742188 13.265625 C4.88387842 11.8580923 3.93897788 10.43082343 3 9 C2.67 12.96 2.34 16.92 2 21 C1.34 21 0.68 21 0 21 C0 14.07 0 7.14 0 0 Z " fill="#0E1454" transform="translate(247,99)"/>
<path d="M0 0 C0 0.66 0 1.32 0 2 C-5.445 1.505 -5.445 1.505 -11 1 C-11 1.66 -11 2.32 -11 3 C-9.86111328 3.38091797 -9.86111328 3.38091797 -8.69921875 3.76953125 C-7.70535156 4.11371094 -6.71148437 4.45789063 -5.6875 4.8125 C-4.20830078 5.31716797 -4.20830078 5.31716797 -2.69921875 5.83203125 C-0.10061887 6.95646159 1.28159181 7.78490904 3 10 C3.5 12.4375 3.5 12.4375 3 15 C1.25 17.3125 1.25 17.3125 -2 19 C-8.60364383 19.83122789 -14.38283895 19.74477404 -20 16 C-19.34 15.34 -18.68 14.68 -18 14 C-17.01 14.66 -16.02 15.32 -15 16 C-12.9507906 16.45139459 -12.9507906 16.45139459 -10.8125 16.625 C-9.554375 16.74875 -8.29625 16.8725 -7 17 C-7.33 16.01 -7.66 15.02 -8 14 C-10.26044171 12.86321671 -10.26044171 12.86321671 -12.9375 12 C-17.78193146 10.3271028 -17.78193146 10.3271028 -20 7 C-19.9375 4 -19.9375 4 -19 1 C-13.5036869 -3.99664827 -6.3328434 -2.53313736 0 0 Z " fill="#991109" transform="translate(258,399)"/>
<path d="M0 0 C1.2375 0.495 1.2375 0.495 2.5 1 C2.5 1.66 2.5 2.32 2.5 3 C-2.945 2.505 -2.945 2.505 -8.5 2 C-8.5 2.66 -8.5 3.32 -8.5 4 C-7.36111328 4.38091797 -7.36111328 4.38091797 -6.19921875 4.76953125 C-5.20535156 5.11371094 -4.21148437 5.45789063 -3.1875 5.8125 C-1.70830078 6.31716797 -1.70830078 6.31716797 -0.19921875 6.83203125 C2.39986402 7.95667054 3.83325754 8.73391522 5.5 11 C5.43026503 14.34727872 5.24520264 16.25128225 2.84375 18.6640625 C-0.22120194 20.41108511 -2.42490338 20.39936483 -5.9375 20.375 C-7.04996094 20.38273437 -8.16242188 20.39046875 -9.30859375 20.3984375 C-12.76528412 19.96688007 -14.68032866 18.99221639 -17.5 17 C-14.11725734 15.87241911 -12.73221777 16.18249738 -9.3125 16.9375 C-8.41144531 17.13214844 -7.51039063 17.32679688 -6.58203125 17.52734375 C-5.89496094 17.68332031 -5.20789063 17.83929688 -4.5 18 C-4.83 17.01 -5.16 16.02 -5.5 15 C-7.76044171 13.86321671 -7.76044171 13.86321671 -10.4375 13 C-15.28193146 11.3271028 -15.28193146 11.3271028 -17.5 8 C-18 5.5625 -18 5.5625 -17.5 3 C-11.98407291 -2.10223255 -6.84030481 -1.9543728 0 0 Z " fill="#991309" transform="translate(231.5,398)"/>
<path d="M0 0 C7.26 0 14.52 0 22 0 C22 0.66 22 1.32 22 2 C18.04 2 14.08 2 10 2 C10 4.64 10 7.28 10 10 C11.98 10 13.96 10 16 10 C16 10.66 16 11.32 16 12 C14.35 12 12.7 12 11 12 C11 14.31 11 16.62 11 19 C14.63 19 18.26 19 22 19 C22 19.66 22 20.32 22 21 C14.74 21 7.48 21 0 21 C0 14.07 0 7.14 0 0 Z " fill="#9A140A" transform="translate(191,397)"/>
<path d="M0 0 C3.1875 2.3125 3.1875 2.3125 5 5 C5 5.99 5 6.98 5 8 C4.34 8 3.68 8 3 8 C1.375 5.5 1.375 5.5 0 3 C-1.97536745 3.34786708 -1.97536745 3.34786708 -4 4 C-5.58493084 7.16986168 -5.2940042 10.54032261 -5 14 C-4.13734032 16.40557853 -4.13734032 16.40557853 -3 18 C-1.68 18 -0.36 18 1 18 C1.66 16.35 2.32 14.7 3 13 C3.66 13 4.32 13 5 13 C4.68132299 15.94776232 4.47089808 17.54849818 2.29296875 19.63671875 C-1.84985592 22.09982916 -6.34536188 21.75853362 -11 21 C-13.89683868 18.7984026 -15.39297231 17.21405538 -17 14 C-17.37712577 9.00308353 -17.09290612 6.00932275 -14 2 C-9.551636 -0.965576 -5.21522971 -0.7613474 0 0 Z " fill="#111755" transform="translate(184,99)"/>
<path d="M0 0 C6.93 0 13.86 0 21 0 C21 0.66 21 1.32 21 2 C17.37 2 13.74 2 10 2 C10 4.64 10 7.28 10 10 C11.65 10 13.3 10 15 10 C15 10.33 15 10.66 15 11 C13.35 11 11.7 11 10 11 C10 13.64 10 16.28 10 19 C13.63 19 17.26 19 21 19 C21 19.66 21 20.32 21 21 C14.07 21 7.14 21 0 21 C0 14.07 0 7.14 0 0 Z " fill="#0B1151" transform="translate(268,99)"/>
<path d="M0 0 C3.3 0 6.6 0 10 0 C13 5.75 13 5.75 13 8 C13.66 8 14.32 8 15 8 C15.309375 7.05125 15.61875 6.1025 15.9375 5.125 C17 2 17 2 18 0 C18.66 0 19.32 0 20 0 C18 6 18 6 16.625 8.8125 C15.6599366 13.73432333 17.73491725 16.60307465 20 21 C16.37 21 12.74 21 9 21 C8.01 18.69 7.02 16.38 6 14 C3.525 17.465 3.525 17.465 1 21 C0.34 20.67 -0.32 20.34 -1 20 C-0.69964844 19.49210937 -0.39929688 18.98421875 -0.08984375 18.4609375 C2.41226914 13.94179249 2.41226914 13.94179249 2.875 8.875 C1.96809931 5.89518346 1.04771221 2.9335942 0 0 Z " fill="#970D08" transform="translate(116,397)"/>
<path d="M0 0 C8.58 0 17.16 0 26 0 C26 0.66 26 1.32 26 2 C23.36 2 20.72 2 18 2 C18 8.27 18 14.54 18 21 C14.7 21 11.4 21 8 21 C8 14.73 8 8.46 8 2 C5.36 2 2.72 2 0 2 C0 1.34 0 0.68 0 0 Z " fill="#981008" transform="translate(355,397)"/>
<path d="M0 0 C0.66 0 1.32 0 2 0 C2 6.93 2 13.86 2 21 C1.34 21 0.68 21 0 21 C0 20.34 0 19.68 0 19 C-3.63 19 -7.26 19 -11 19 C-11 13.39 -11 7.78 -11 2 C-7.37 2 -3.74 2 0 2 C0 1.34 0 0.68 0 0 Z " fill="#EFEFF4" transform="translate(289,99)"/>
<path d="M0 0 C4.29 0 8.58 0 13 0 C12.67 0.66 12.34 1.32 12 2 C11.34 1.67 10.68 1.34 10 1 C10 3.64 10 6.28 10 9 C10.66 9.33 11.32 9.66 12 10 C11.34 10 10.68 10 10 10 C10 13.3 10 16.6 10 20 C6.7 20 3.4 20 0 20 C0 13.4 0 6.8 0 0 Z " fill="#970C07" transform="translate(329,398)"/>
<path d="M0 0 C4.29 0 8.58 0 13 0 C12.67 0.66 12.34 1.32 12 2 C11.34 1.67 10.68 1.34 10 1 C10 3.64 10 6.28 10 9 C10.66 9.33 11.32 9.66 12 10 C11.34 10 10.68 10 10 10 C10 13.3 10 16.6 10 20 C6.7 20 3.4 20 0 20 C0 13.4 0 6.8 0 0 Z " fill="#0A1051" transform="translate(291,100)"/>
<path d="M0 0 C4.29 0 8.58 0 13 0 C12.67 0.66 12.34 1.32 12 2 C11.01 1.67 10.02 1.34 9 1 C9 3.64 9 6.28 9 9 C9.99 9.33 10.98 9.66 12 10 C11.01 10 10.02 10 9 10 C9 13.3 9 16.6 9 20 C6.03 20 3.06 20 0 20 C0 13.4 0 6.8 0 0 Z " fill="#940606" transform="translate(165,398)"/>
<path d="M0 0 C4.29 0 8.58 0 13 0 C12.67 0.66 12.34 1.32 12 2 C11.01 1.67 10.02 1.34 9 1 C9 3.64 9 6.28 9 9 C9.99 9.33 10.98 9.66 12 10 C11.01 10 10.02 10 9 10 C9 13.3 9 16.6 9 20 C6.03 20 3.06 20 0 20 C0 13.4 0 6.8 0 0 Z " fill="#02084B" transform="translate(221,100)"/>
<path d="M0 0 C1.134375 0.020625 2.26875 0.04125 3.4375 0.0625 C3.1075 1.0525 2.7775 2.0425 2.4375 3.0625 C2.31733672 5.20587765 2.26218336 7.35329124 2.25 9.5 C2.22873047 11.19962891 2.22873047 11.19962891 2.20703125 12.93359375 C2.42678865 15.91707979 2.87906614 17.55545423 4.4375 20.0625 C-0.8578712 20.56682107 -3.42954506 19.35007779 -7.5625 16.0625 C-10.06281654 12.31202518 -10.09853554 10.50393734 -9.5625 6.0625 C-7.125 3.1875 -7.125 3.1875 -4.5625 1.0625 C-3.5625 0.0625 -3.5625 0.0625 0 0 Z " fill="#070D4F" transform="translate(200.5625,99.9375)"/>
<path d="M0 0 C3.3825 -0.061875 6.765 -0.12375 10.25 -0.1875 C11.30993164 -0.21481201 12.36986328 -0.24212402 13.46191406 -0.27026367 C14.72600098 -0.28150269 14.72600098 -0.28150269 16.015625 -0.29296875 C16.87446289 -0.3086792 17.73330078 -0.32438965 18.61816406 -0.34057617 C21.53013459 0.07580338 22.88252678 0.98803971 25 3 C25.6444576 6.14173081 25.2663334 7.53074591 23.6875 10.3125 C19.40525166 13.00135361 14.92480563 12.30567759 10 12 C10 8.7 10 5.4 10 2 C11.32 1.67 12.64 1.34 14 1 C9.71 1 5.42 1 1 1 C1 7.6 1 14.2 1 21 C0.67 21 0.34 21 0 21 C0 14.07 0 7.14 0 0 Z " fill="#A1240E" transform="translate(138,397)"/>
<path d="M0 0 C2.86724686 0.57344937 3.8614515 0.8614515 6 3 C6 3.99 6 4.98 6 6 C6.99 5.67 7.98 5.34 9 5 C9.625 7.3125 9.625 7.3125 10 10 C9.01 11.485 9.01 11.485 8 13 C8 12.34 8 11.68 8 11 C7.34 11 6.68 11 6 11 C5.67 12.65 5.34 14.3 5 16 C3.35 16.33 1.7 16.66 0 17 C-3.37318554 12.50241928 -3.51804578 9.43948065 -3 4 C-1.5 1.5 -1.5 1.5 0 0 Z " fill="#F1F1F5" transform="translate(181,101)"/>
<path d="M0 0 C2.4375 0.75 2.4375 0.75 4.4375 2.75 C4.8125 5.1875 4.8125 5.1875 4.4375 7.75 C2.75 9.625 2.75 9.625 0.4375 10.75 C-2.1875 10.625 -2.1875 10.625 -4.5625 9.75 C-6.5625 6.75 -6.5625 6.75 -6.375 4.1875 C-5.20563183 0.67939548 -3.6900641 -0.36000625 0 0 Z " fill="#0F0F0F" transform="translate(449.5625,266.25)"/>
<path d="M0 0 C2.4375 0.75 2.4375 0.75 4.4375 2.75 C4.8125 5.1875 4.8125 5.1875 4.4375 7.75 C2.75 9.625 2.75 9.625 0.4375 10.75 C-2.1875 10.625 -2.1875 10.625 -4.5625 9.75 C-6.5625 6.75 -6.5625 6.75 -6.375 4.1875 C-5.20563183 0.67939548 -3.6900641 -0.36000625 0 0 Z " fill="#0F0F0F" transform="translate(422.5625,266.25)"/>
<path d="M0 0 C3.45195767 1.4258086 5.1014256 3.09746334 7.25 6.125 C7.77078125 6.84945312 8.2915625 7.57390625 8.828125 8.3203125 C9.40820312 9.15175781 9.40820312 9.15175781 10 10 C7.3144406 12.6855594 4.62378672 13.06049974 1 14 C-0.44209192 9.49346274 -1.34223148 5.79124078 -1 1 C-0.67 0.67 -0.34 0.34 0 0 Z " fill="#FAF6F7" transform="translate(120,249)"/>
<path d="M0 0 C1.98 0.495 1.98 0.495 4 1 C4 6.28 4 11.56 4 17 C2.68 17 1.36 17 0 17 C-1.42597611 14.14804778 -1.1320252 11.67538825 -1.125 8.5 C-1.12757813 7.3346875 -1.13015625 6.169375 -1.1328125 4.96875 C-1 2 -1 2 0 0 Z " fill="#EDEDF2" transform="translate(203,101)"/>
<path d="M0 0 C0.66 0 1.32 0 2 0 C2.33 1.98 2.66 3.96 3 6 C2.236875 6.020625 1.47375 6.04125 0.6875 6.0625 C-2.41389118 6.79660949 -2.41389118 6.79660949 -3.8125 10.5625 C-4.204375 11.696875 -4.59625 12.83125 -5 14 C-5.66 14 -6.32 14 -7 14 C-6.54965877 12.37276701 -6.08944646 10.74826336 -5.625 9.125 C-5.24214844 7.76761719 -5.24214844 7.76761719 -4.8515625 6.3828125 C-3.80997601 3.46828149 -2.16938108 2.16938108 0 0 Z " fill="#BA5A1E" transform="translate(309,404)"/>
<path d="M0 0 C1.32 0.33 2.64 0.66 4 1 C4.625 3.375 4.625 3.375 5 6 C4.34 6.66 3.68 7.32 3 8 C2.01 8 1.02 8 0 8 C0 5.36 0 2.72 0 0 Z " fill="#E9C33E" transform="translate(174,399)"/>
<path d="M0 0 C1.32 0.33 2.64 0.66 4 1 C4.625 3.375 4.625 3.375 5 6 C4.34 6.66 3.68 7.32 3 8 C2.01 8 1.02 8 0 8 C0 5.36 0 2.72 0 0 Z " fill="#E9C33D" transform="translate(148,399)"/>
<path d="M0 0 C1.32 0.33 2.64 0.66 4 1 C4.625 3.375 4.625 3.375 5 6 C4.34 6.66 3.68 7.32 3 8 C2.01 8 1.02 8 0 8 C0 5.36 0 2.72 0 0 Z " fill="#E8E9EE" transform="translate(230,101)"/>
<path d="M0 0 C1.32 0.33 2.64 0.66 4 1 C4 2.98 4 4.96 4 7 C2.68 7.33 1.36 7.66 0 8 C0 5.36 0 2.72 0 0 Z " fill="#ECCA40" transform="translate(339,399)"/>
<path d="M0 0 C1.32 0.33 2.64 0.66 4 1 C4 2.98 4 4.96 4 7 C2.68 7.33 1.36 7.66 0 8 C0 5.36 0 2.72 0 0 Z " fill="#F1F1F5" transform="translate(301,101)"/>
<path d="M0 0 C0.804375 0.4640625 0.804375 0.4640625 1.625 0.9375 C4.3984957 2.17827439 7.00042837 2.5909675 10 3 C9.67 3.66 9.34 4.32 9 5 C2.47692308 4.38461538 2.47692308 4.38461538 0.0625 2.4375 C-0.288125 1.963125 -0.63875 1.48875 -1 1 C-0.67 0.67 -0.34 0.34 0 0 Z " fill="#A42910" transform="translate(239,413)"/>
<path d="M0 0 C0.66 0.99 1.32 1.98 2 3 C0.02 5.97 0.02 5.97 -2 9 C-2.66 8.67 -3.32 8.34 -4 8 C-2.68 5.36 -1.36 2.72 0 0 Z " fill="#A1220E" transform="translate(119,409)"/>
</svg>
